<?xml version="1.0" encoding="UTF-8"?>
<svg width="351px" height="136px" viewBox="0 0 351 136" version="1.1" xmlns="http://www.w3.org/2000/svg" xmlns:xlink="http://www.w3.org/1999/xlink">
    <!-- Generator: Sketch 53.2 (72643) - https://sketchapp.com -->
    <title>007物品</title>
    <desc>Created with Sketch.</desc>
    <defs>
        <linearGradient x1="100%" y1="43.5843172%" x2="0%" y2="56.4156828%" id="linearGradient-1">
            <stop stop-color="#4cc9ac" offset="0%"></stop>
            <stop stop-color="#51dbbb" offset="100%"></stop>
        </linearGradient>
        <rect id="path-2" x="0" y="0" width="335" height="120" rx="6"></rect>
        <filter x="-3.9%" y="-9.2%" width="107.8%" height="121.7%" filterUnits="objectBoundingBox" id="filter-4">
            <feMorphology radius="1" operator="dilate" in="SourceAlpha" result="shadowSpreadOuter1"></feMorphology>
            <feOffset dx="0" dy="2" in="shadowSpreadOuter1" result="shadowOffsetOuter1"></feOffset>
            <feGaussianBlur stdDeviation="3" in="shadowOffsetOuter1" result="shadowBlurOuter1"></feGaussianBlur>
            <feColorMatrix values="0 0 0 0 0   0 0 0 0 0   0 0 0 0 0  0 0 0 0.15 0" type="matrix" in="shadowBlurOuter1"></feColorMatrix>
        </filter>
    </defs>
    <g id="Page-1" stroke="none" stroke-width="1" fill="none" fill-rule="evenodd">
        <g id="iPhone-XS" transform="translate(-12.000000, -75.000000)">
            <g id="失物招领" transform="translate(20.000000, 81.000000)">
                <g id="007物品">
                    <mask id="mask-3" fill="white">
                        <use xlink:href="#path-2"></use>
                    </mask>
                    <g id="Mask">
                        <use fill="black" fill-opacity="1" filter="url(#filter-4)" xlink:href="#path-2"></use>
                        <use fill="url(#linearGradient-1)" fill-rule="evenodd" xlink:href="#path-2"></use>
                    </g>
                    <g opacity="0.8" mask="url(#mask-3)" fill="#FFFFFF" fill-rule="nonzero" id="形状">
                        <g transform="translate(208.000000, 10.000000)">
                            <path d="M135.571429,0 L10.4285714,0 L0,41.3333333 L0,124 L146,124 L146,41.3333333 L135.571429,0 Z M75.6,10 L84,41 L63,41 L71.4,10 L75.6,10 Z M63,52 L84,52 L84,83 L63,83 L63,52 Z M18.3333333,10 L60,10 L51.6666667,41 L10,41 L18.3333333,10 Z M136,114 L11,114 L11,52 L52.6666667,52 L52.6666667,93.3333333 L94.3333333,93.3333333 L94.3333333,52 L136,52 L136,114 Z M94.2978723,41 L87,10 L128.702128,10 L136,41 L94.2978723,41 Z"></path>
                        </g>
                    </g>
                </g>
            </g>
        </g>
    </g>
</svg>