<?xml version="1.0" encoding="UTF-8"?>
<svg width="351px" height="136px" viewBox="0 0 351 136" version="1.1" xmlns="http://www.w3.org/2000/svg" xmlns:xlink="http://www.w3.org/1999/xlink">
    <!-- Generator: Sketch 53.2 (72643) - https://sketchapp.com -->
    <title>公交车</title>
    <desc>Created with Sketch.</desc>
    <defs>
        <linearGradient x1="100%" y1="43.5843172%" x2="0%" y2="56.4156828%" id="linearGradient-1">
            <stop stop-color="#4cc9ac" offset="0%"></stop>
            <stop stop-color="#51dbbb" offset="100%"></stop>
        </linearGradient>
        <rect id="path-2" x="0" y="0" width="335" height="120" rx="6"></rect>
        <filter x="-3.9%" y="-9.2%" width="107.8%" height="121.7%" filterUnits="objectBoundingBox" id="filter-4">
            <feMorphology radius="1" operator="dilate" in="SourceAlpha" result="shadowSpreadOuter1"></feMorphology>
            <feOffset dx="0" dy="2" in="shadowSpreadOuter1" result="shadowOffsetOuter1"></feOffset>
            <feGaussianBlur stdDeviation="3" in="shadowOffsetOuter1" result="shadowBlurOuter1"></feGaussianBlur>
            <feColorMatrix values="0 0 0 0 0   0 0 0 0 0   0 0 0 0 0  0 0 0 0.15 0" type="matrix" in="shadowBlurOuter1"></feColorMatrix>
        </filter>
    </defs>
    <g id="Page-1" stroke="none" stroke-width="1" fill="none" fill-rule="evenodd">
        <g id="iPhone-XS" transform="translate(-12.000000, -215.000000)">
            <g id="校车" transform="translate(20.000000, 221.000000)">
                <g id="公交车">
                    <mask id="mask-3" fill="white">
                        <use xlink:href="#path-2"></use>
                    </mask>
                    <g id="Mask">
                        <use fill="black" fill-opacity="1" filter="url(#filter-4)" xlink:href="#path-2"></use>
                        <use fill="url(#linearGradient-1)" fill-rule="evenodd" xlink:href="#path-2"></use>
                    </g>
                    <g opacity="0.8" mask="url(#mask-3)" fill-rule="nonzero">
                        <g transform="translate(194.000000, -10.000000)">
                            <rect id="矩形" fill="#000000" opacity="0" x="0" y="0" width="161" height="161"></rect>
                            <path d="M145.295515,49.8024466 L142.400815,49.8024466 L142.400815,35.2861361 C142.400815,30.5153262 138.894559,24.8474409 134.613665,22.7066929 C134.613665,22.7066929 119.202446,15 81.5101926,15 C43.817939,15 28.3863349,22.7066929 28.3863349,22.7066929 C24.1054407,24.8474409 20.5991846,30.5153262 20.5991846,35.2861361 L20.5991846,49.8024466 L17.7044847,49.8024466 C12.9097043,49.8135986 9.02239261,53.6923519 9,58.4877672 L9,67.1934758 C9.01120822,71.996855 12.9017808,75.8879747 17.7044847,75.8991845 L20.5991846,75.8991845 L20.5991846,135.350816 C20.6173132,139.033695 22.9401948,142.310641 26.4089695,143.546822 L26.4089695,148.399184 C26.4089695,154.806138 31.6021013,160 38.0081541,160 C44.4142068,160 49.6073387,154.806138 49.6073387,148.399184 L49.6073387,144.056524 L113.392661,144.056524 L113.392661,148.399184 C113.392661,154.806138 118.585793,160 124.991846,160 C131.397899,160 136.591031,154.806138 136.591031,148.399184 L136.591031,143.546822 C140.063629,142.315694 142.38872,139.03563 142.400815,135.350816 L142.400815,75.8991845 L145.295515,75.8991845 C150.098219,75.8879747 153.988792,71.996855 154,67.1934758 L154,58.4877672 C153.977607,53.6923519 150.090296,49.8135986 145.295515,49.8024466 Z M52.5020385,29.4959224 C52.5131475,27.9016238 53.8026639,26.611926 55.3967384,26.6008155 L107.603262,26.6008155 C109.197336,26.611926 110.486853,27.9016238 110.497961,29.4959224 L110.497961,35.2861361 C110.498001,36.8883909 109.205252,38.1904265 107.603262,38.201631 L55.3967384,38.201631 C53.794748,38.1904265 52.5019994,36.8883909 52.5020385,35.2861361 L52.5020385,29.4959224 Z M39.455504,132.455709 C35.4474991,132.455709 32.1983692,129.206122 32.1983692,125.197553 C32.1983692,121.188985 35.4474991,117.939398 39.455504,117.939398 C43.4635089,117.939398 46.7126388,121.188985 46.7126388,125.197553 C46.7014406,129.201474 43.4588612,132.444509 39.455504,132.455709 L39.455504,132.455709 Z M123.544496,132.455709 C119.536491,132.455709 116.287361,129.206122 116.287361,125.197553 C116.287361,121.188985 119.536491,117.939398 123.544496,117.939398 C127.552501,117.939398 130.801631,121.188985 130.801631,125.197553 C130.801631,129.206122 127.552501,132.455709 123.544496,132.455709 L123.544496,132.455709 Z M130.801631,99.1008155 C130.790522,100.695114 129.501005,101.984812 127.906931,101.995922 L35.1134542,101.995922 C33.5114247,101.995962 32.2095722,100.703031 32.1983692,99.1008155 L32.1983692,52.6975534 C32.2095722,51.0953378 33.5114247,49.8024074 35.1134542,49.8024466 L127.906931,49.8024466 C129.501005,49.8135571 130.790522,51.1032549 130.801631,52.6975534 L130.801631,99.1008155 Z" id="形状" fill="#FFFFFF"></path>
                        </g>
                    </g>
                </g>
            </g>
        </g>
    </g>
</svg>